<svg width="170" height="40" viewBox="0 0 170 40" fill="none" xmlns="http://www.w3.org/2000/svg">
<rect x="20.249" y="20" width="20.2492" height="20" rx="10" fill="#9EE4FB"/>
<rect width="20.2492" height="20" rx="10" fill="#C7F77C"/>
<rect x="20.249" width="20.2492" height="20" rx="10" fill="#FFB167"/>
<rect y="20" width="20.2492" height="20" rx="10" fill="#B98EFF"/>
<g clip-path="url(#clip0_22402_1766)">
<path d="M51.1294 23.7398H56.5778C56.5778 25.957 58.4078 27.4762 61.4441 27.4762C63.7733 27.4762 65.3122 26.4909 65.3122 24.8895C65.3122 22.9597 63.1079 22.7134 60.5292 22.4672C56.6194 22.0566 51.3788 21.4408 51.3788 16.0211C51.3788 11.71 55.1637 9 60.8619 9C66.5601 9 70.6774 11.7508 70.6774 16.1033H65.0624C65.0208 14.2145 63.3157 13.0238 60.8616 13.0238C58.6156 13.0238 57.0766 14.0091 57.0766 15.5283C57.0766 17.4992 59.6969 17.6222 62.6499 17.9506C66.5594 18.4023 71.3424 19.3465 71.3424 24.3556C71.3424 28.8311 67.5575 31.4996 61.2772 31.4996C54.9968 31.4996 51.1294 28.5848 51.1294 23.7398Z" fill="#1C1B22"/>
<path d="M97.1787 25.2589C97.1787 21.3173 100.548 18.8946 107.244 18.0737L111.778 17.5402V16.6778C111.778 14.6661 110.363 13.3109 107.909 13.3109C105.663 13.3109 104.124 14.5428 104.166 16.6367H98.1355C98.1355 12.0383 102.003 9.08203 107.993 9.08203C113.982 9.08203 117.933 12.1205 117.933 16.8829V30.7608H111.778V28.0918H111.362C110.031 30.1857 107.577 31.2943 104.54 31.2943C100.173 31.2943 97.1787 29.036 97.1787 25.2589ZM111.777 22.7133V21.2351L107.41 21.7691C104.374 22.1386 103.209 23.3294 103.209 24.7664C103.209 26.3267 104.457 27.312 106.578 27.312C109.656 27.312 111.777 25.3411 111.777 22.7136V22.7133Z" fill="#1C1B22"/>
<path d="M119.698 23.7398H125.146C125.146 25.957 126.976 27.4762 130.013 27.4762C132.342 27.4762 133.88 26.4909 133.88 24.8895C133.88 22.9597 131.676 22.7134 129.097 22.4672C125.188 22.0566 119.947 21.4408 119.947 16.0211C119.947 11.71 123.732 9 129.43 9C135.128 9 139.246 11.7508 139.246 16.1033H133.631C133.589 14.2145 131.884 13.0238 129.43 13.0238C127.184 13.0238 125.645 14.0091 125.645 15.5283C125.645 17.4992 128.265 17.6222 131.218 17.9506C135.128 18.4023 139.911 19.3465 139.911 24.3556C139.911 28.8311 136.126 31.4996 129.845 31.4996C123.565 31.4996 119.697 28.5845 119.697 23.7395L119.698 23.7398Z" fill="#1C1B22"/>
<path d="M142.216 9.73881H148.371V12.6951H148.787C150.368 10.3138 152.406 9.12305 154.984 9.12305C159.809 9.12305 163.011 12.8184 163.011 17.8685V30.761H156.856V18.7305C156.856 16.1438 155.359 14.3372 152.863 14.3372C150.368 14.3372 148.371 16.2671 148.371 18.9357V30.7603H142.216V9.73881Z" fill="#1C1B22"/>
<path d="M78.9577 18.2381C79.4569 15.4463 81.4115 13.5986 84.1983 13.5986C86.9851 13.5986 89.1478 15.5696 89.5221 18.2381H78.9581H78.9577ZM95.8021 20.168C95.8021 13.5575 91.144 9.08203 84.3644 9.08203C77.5849 9.08203 72.6357 13.5164 72.6357 20.0858C72.6357 26.6552 77.502 31.418 84.4061 31.418C89.5634 31.418 93.681 29.1186 95.0122 25.3411C95.1652 24.9326 95.266 24.416 95.3091 24.1701H89.6931C88.7541 25.8148 86.9603 26.9014 84.6559 26.9014C81.6196 26.9014 79.4985 24.9716 78.9993 22.0157H95.7192C95.8021 21.5639 95.8021 20.7016 95.8021 20.168Z" fill="#1C1B22"/>
</g>
<defs>
<clipPath id="clip0_22402_1766">
<rect width="117.952" height="22.5" fill="#1C1B22" transform="translate(51.1294 9)"/>
</clipPath>
</defs>
</svg>
